<svg version="1.1" id="Layer_1" xmlns="http://www.w3.org/2000/svg" xmlns:xlink="http://www.w3.org/1999/xlink" x="0px" y="0px"
	 width="100%" viewBox="0 0 512 512" enable-background="new 0 0 512 512" xml:space="preserve">
<path fill="#000000" opacity="1.000000" stroke="none" 
	d="
M251.000000,513.000000 
	C167.702164,513.000000 84.404343,513.000000 1.053257,513.000000 
	C1.053257,342.441559 1.053257,171.883102 1.053257,1.000000 
	C86.355072,1.000000 171.710556,1.000000 257.537048,1.369473 
	C255.930069,2.606313 253.837585,3.440645 251.776505,4.346442 
	C238.878296,10.014950 226.049469,15.846631 213.077545,21.340710 
	C197.436493,27.965256 181.654800,34.256809 165.972870,40.785915 
	C148.617462,48.011761 131.317001,55.369495 113.972427,62.621506 
	C95.681198,70.269333 77.371597,77.873299 59.059959,85.472183 
	C40.722061,93.081978 22.371742,100.661827 3.713704,108.518326 
	C3.257756,110.930801 2.990547,113.079712 2.990109,115.228676 
	C2.971919,204.323959 2.973819,293.419250 2.988727,382.514526 
	C2.989757,388.673096 3.110114,394.831665 3.338745,401.292664 
	C11.702877,405.362640 19.871670,409.200775 28.109938,412.883514 
	C47.579018,421.586761 67.096931,430.180725 86.565430,438.885254 
	C105.819153,447.493774 124.995209,456.277161 144.286346,464.800446 
	C154.589310,469.352539 165.072983,473.494537 175.456390,477.866119 
	C181.525116,480.421112 187.586624,482.997345 193.598740,485.681915 
	C203.602341,490.148834 213.542236,494.758575 223.550354,499.215179 
	C230.144501,502.151581 236.885941,504.766754 243.409912,507.846710 
	C246.141983,509.136475 248.481812,511.257141 251.000000,513.000000 
z"/>
<path fill="#5F3A43" opacity="1.000000" stroke="none" 
	d="
M251.463181,513.000000 
	C248.481812,511.257141 246.141983,509.136475 243.409912,507.846710 
	C236.885941,504.766754 230.144501,502.151581 223.550354,499.215179 
	C213.542236,494.758575 203.602341,490.148834 193.598740,485.681915 
	C187.586624,482.997345 181.525116,480.421112 175.456390,477.866119 
	C165.072983,473.494537 154.589310,469.352539 144.286346,464.800446 
	C124.995209,456.277161 105.819153,447.493774 86.565430,438.885254 
	C67.096931,430.180725 47.579018,421.586761 28.109938,412.883514 
	C19.871670,409.200775 11.702877,405.362640 3.551133,400.984985 
	C4.055936,397.457092 4.908499,394.539612 4.910778,391.621521 
	C4.981955,300.472809 4.980149,209.324097 4.931387,118.175385 
	C4.929618,114.868362 4.341646,111.561661 4.026868,108.254807 
	C22.371742,100.661827 40.722061,93.081978 59.059959,85.472183 
	C77.371597,77.873299 95.681198,70.269333 113.972427,62.621506 
	C131.317001,55.369495 148.617462,48.011761 165.972870,40.785915 
	C181.654800,34.256809 197.436493,27.965256 213.077545,21.340710 
	C226.049469,15.846631 238.878296,10.014950 251.776505,4.346442 
	C253.837585,3.440645 255.930069,2.606313 258.004028,1.369473 
	C260.700012,1.000000 263.400024,1.000000 266.654816,1.172386 
	C267.473053,1.229848 267.736542,1.114925 268.000000,1.000001 
	C268.444458,1.000000 268.888885,1.000000 269.598267,1.368097 
	C270.037842,2.009356 270.147919,2.417069 270.396454,2.536399 
	C283.524048,8.839223 296.633087,15.182022 309.809723,21.381054 
	C323.716095,27.923426 337.662720,34.381870 351.642487,40.765930 
	C358.376495,43.841103 365.301636,46.501263 372.008209,49.632153 
	C383.753235,55.115173 395.342957,60.931622 407.099152,66.389961 
	C416.787842,70.888374 426.711426,74.883774 436.372742,79.437553 
	C450.467499,86.081001 464.393341,93.081818 478.442780,99.822762 
	C489.230988,104.998962 500.098846,110.009193 510.948853,115.556000 
	C510.974609,146.801331 510.986633,177.583878 510.990173,208.366440 
	C510.997406,271.595764 510.972961,334.825165 511.089294,398.054291 
	C511.094757,401.037354 512.334900,404.018158 513.000000,407.000000 
	C513.000000,407.444458 513.000000,407.888885 512.611450,408.567993 
	C504.854919,411.562469 497.435425,414.193726 490.132538,417.116364 
	C481.897522,420.412048 473.767090,423.969025 465.591827,427.413910 
	C452.744720,432.827423 439.924530,438.306061 427.043030,443.636444 
	C416.607788,447.954559 406.069580,452.023682 395.631104,456.334229 
	C384.928375,460.753845 374.302673,465.359680 363.622345,469.834137 
	C353.172485,474.212006 342.684631,478.499207 332.234558,482.876617 
	C319.077576,488.387817 305.955933,493.983490 292.791656,499.477020 
	C285.828247,502.382935 278.741302,505.001617 271.843384,508.051239 
	C269.046326,509.287842 266.603821,511.326385 264.000000,513.000000 
	C259.975464,513.000000 255.950912,513.000000 251.463181,513.000000 
M500.965179,123.016525 
	C498.940155,122.304695 496.833923,121.764565 494.903931,120.851822 
	C485.712219,116.504837 476.618011,111.949730 467.395447,107.670540 
	C455.075012,101.953957 442.616943,96.533318 430.311920,90.784470 
	C416.027985,84.111069 401.899963,77.103409 387.604706,70.454964 
	C372.472382,63.417210 357.181488,56.720783 342.036224,49.710316 
	C326.703278,42.612972 311.465790,35.309372 296.182343,28.104889 
	C289.071136,24.752739 282.007721,21.290565 274.815002,18.122717 
	C269.254974,15.673956 264.117920,12.112533 257.206970,15.447611 
	C246.769806,20.484365 235.885101,24.596464 225.174820,29.063734 
	C215.614792,33.051235 206.013794,36.940910 196.466553,40.958530 
	C185.343307,45.639347 174.278671,50.459499 163.150131,55.127514 
	C156.504517,57.915104 149.747406,60.437347 143.107544,63.238037 
	C132.408066,67.751068 121.797852,72.476448 111.084946,76.956749 
	C103.665215,80.059784 96.081306,82.771095 88.669044,85.890968 
	C77.957504,90.399544 67.379181,95.225037 56.661724,99.719048 
	C46.394054,104.024452 35.991100,108.006592 25.709877,112.280609 
	C21.669861,113.960083 17.798864,116.046150 13.472472,117.865921 
	C12.982727,119.601067 12.075768,121.334091 12.066926,123.071678 
	C11.963543,143.388031 11.991144,163.705063 11.991944,184.021912 
	C11.994596,251.300674 11.979939,318.579468 12.089212,385.858093 
	C12.093091,388.246887 13.336564,390.633667 14.705791,393.178864 
	C24.679783,397.747650 34.593498,402.454254 44.642906,406.850647 
	C57.422218,412.441284 70.375397,417.635834 83.135437,423.268829 
	C96.040764,428.966034 108.777176,435.044495 121.633881,440.853485 
	C131.650345,445.379150 141.751999,449.715851 151.790421,454.193420 
	C166.327301,460.677490 180.817551,467.266541 195.371216,473.712494 
	C212.005875,481.080139 228.775848,488.149139 245.310043,495.733704 
	C252.700974,499.124023 259.606964,502.273499 267.452911,496.949219 
	C270.261597,495.043213 273.714844,494.061249 276.918945,492.769196 
	C283.778839,490.003021 290.709564,487.409241 297.535950,484.564117 
	C309.117676,479.737122 320.645599,474.780853 332.187683,469.859100 
	C342.601562,465.418427 352.967712,460.863617 363.421997,456.520569 
	C373.900574,452.167389 384.492401,448.087341 394.978424,443.751740 
	C405.151276,439.545654 415.242859,435.143524 425.388336,430.870636 
	C435.504089,426.610321 445.643646,422.406525 455.770447,418.172394 
	C463.188293,415.070953 470.572937,411.887665 478.026428,408.874573 
	C485.610046,405.808929 493.259888,402.907013 501.140411,399.752014 
	C501.414795,399.436157 501.689178,399.120300 501.937439,398.454163 
	C501.937439,398.454163 501.945862,398.102966 502.234253,397.312103 
	C502.489716,395.009216 502.967499,392.706451 502.968536,390.403473 
	C503.006470,303.876007 503.011780,217.348541 502.945709,130.821152 
	C502.943726,128.225098 502.131989,125.629669 500.965179,123.016525 
z"/>
<path fill="#000000" opacity="1.000000" stroke="none" 
	d="
M510.931274,115.093231 
	C500.098846,110.009193 489.230988,104.998962 478.442780,99.822762 
	C464.393341,93.081818 450.467499,86.081001 436.372742,79.437553 
	C426.711426,74.883774 416.787842,70.888374 407.099152,66.389961 
	C395.342957,60.931622 383.753235,55.115173 372.008209,49.632153 
	C365.301636,46.501263 358.376495,43.841103 351.642487,40.765930 
	C337.662720,34.381870 323.716095,27.923426 309.809723,21.381054 
	C296.633087,15.182022 283.524048,8.839223 270.396454,2.536399 
	C270.147919,2.417069 270.037842,2.009356 269.931580,1.368097 
	C350.900635,1.000000 431.801270,1.000000 513.000000,1.000000 
	C513.000000,38.687038 513.000000,76.374863 512.683350,114.712769 
	C511.888214,115.272972 511.409760,115.183098 510.931274,115.093231 
z"/>
<path fill="#000000" opacity="1.000000" stroke="none" 
	d="
M264.468689,513.000000 
	C266.603821,511.326385 269.046326,509.287842 271.843384,508.051239 
	C278.741302,505.001617 285.828247,502.382935 292.791656,499.477020 
	C305.955933,493.983490 319.077576,488.387817 332.234558,482.876617 
	C342.684631,478.499207 353.172485,474.212006 363.622345,469.834137 
	C374.302673,465.359680 384.928375,460.753845 395.631104,456.334229 
	C406.069580,452.023682 416.607788,447.954559 427.043030,443.636444 
	C439.924530,438.306061 452.744720,432.827423 465.591827,427.413910 
	C473.767090,423.969025 481.897522,420.412048 490.132538,417.116364 
	C497.435425,414.193726 504.854919,411.562469 512.611450,408.901306 
	C513.000000,443.623657 513.000000,478.247314 513.000000,513.000000 
	C430.312469,513.000000 347.624908,513.000000 264.468689,513.000000 
z"/>
<path fill="#5A5255" opacity="1.000000" stroke="none" 
	d="
M510.948853,115.556000 
	C511.409760,115.183098 511.888214,115.272972 512.683350,115.181427 
	C513.000000,212.020889 513.000000,309.041779 513.000000,406.531342 
	C512.334900,404.018158 511.094757,401.037354 511.089294,398.054291 
	C510.972961,334.825165 510.997406,271.595764 510.990173,208.366440 
	C510.986633,177.583878 510.974609,146.801331 510.948853,115.556000 
z"/>
<path fill="#000000" opacity="1.000000" stroke="none" 
	d="
M267.750000,1.000001 
	C267.736542,1.114925 267.473053,1.229848 267.104797,1.172386 
	C267.000000,1.000000 267.500000,1.000000 267.750000,1.000001 
z"/>
<path fill="#624950" opacity="1.000000" stroke="none" 
	d="
M3.713705,108.518333 
	C4.341646,111.561661 4.929618,114.868362 4.931387,118.175385 
	C4.980149,209.324097 4.981955,300.472809 4.910778,391.621521 
	C4.908499,394.539612 4.055936,397.457092 3.387366,400.682556 
	C3.110114,394.831665 2.989757,388.673096 2.988727,382.514526 
	C2.973819,293.419250 2.971919,204.323959 2.990109,115.228676 
	C2.990547,113.079712 3.257756,110.930801 3.713705,108.518333 
z"/>
<path fill="#000000" opacity="1.000000" stroke="none" 
	d="
M13.850897,117.947060 
	C17.798864,116.046150 21.669861,113.960083 25.709877,112.280609 
	C35.991100,108.006592 46.394054,104.024452 56.661724,99.719048 
	C67.379181,95.225037 77.957504,90.399544 88.669044,85.890968 
	C96.081306,82.771095 103.665215,80.059784 111.084946,76.956749 
	C121.797852,72.476448 132.408066,67.751068 143.107544,63.238037 
	C149.747406,60.437347 156.504517,57.915104 163.150131,55.127514 
	C174.278671,50.459499 185.343307,45.639347 196.466553,40.958530 
	C206.013794,36.940910 215.614792,33.051235 225.174820,29.063734 
	C235.885101,24.596464 246.769806,20.484365 257.206970,15.447611 
	C264.117920,12.112533 269.254974,15.673956 274.815002,18.122717 
	C282.007721,21.290565 289.071136,24.752739 296.182343,28.104889 
	C311.465790,35.309372 326.703278,42.612972 342.036224,49.710316 
	C357.181488,56.720783 372.472382,63.417210 387.604706,70.454964 
	C401.899963,77.103409 416.027985,84.111069 430.311920,90.784470 
	C442.616943,96.533318 455.075012,101.953957 467.395447,107.670540 
	C476.618011,111.949730 485.712219,116.504837 494.903931,120.851822 
	C496.833923,121.764565 498.940155,122.304695 501.291504,123.433327 
	C501.413177,126.326210 501.026733,128.802597 501.030975,131.278336 
	C501.101929,172.701797 501.310150,214.125198 501.306793,255.548599 
	C501.303131,300.631927 501.098236,345.715210 501.045227,390.798615 
	C501.042358,393.233032 501.631989,395.668152 501.945862,398.102966 
	C501.945862,398.102966 501.937439,398.454163 501.730225,398.779480 
	C501.308899,399.381012 501.094818,399.657227 500.880737,399.933472 
	C493.259888,402.907013 485.610046,405.808929 478.026428,408.874573 
	C470.572937,411.887665 463.188293,415.070953 455.770447,418.172394 
	C445.643646,422.406525 435.504089,426.610321 425.388336,430.870636 
	C415.242859,435.143524 405.151276,439.545654 394.978424,443.751740 
	C384.492401,448.087341 373.900574,452.167389 363.421997,456.520569 
	C352.967712,460.863617 342.601562,465.418427 332.187683,469.859100 
	C320.645599,474.780853 309.117676,479.737122 297.535950,484.564117 
	C290.709564,487.409241 283.778839,490.003021 276.918945,492.769196 
	C273.714844,494.061249 270.261597,495.043213 267.452911,496.949219 
	C259.606964,502.273499 252.700974,499.124023 245.310043,495.733704 
	C228.775848,488.149139 212.005875,481.080139 195.371216,473.712494 
	C180.817551,467.266541 166.327301,460.677490 151.790421,454.193420 
	C141.751999,449.715851 131.650345,445.379150 121.633881,440.853485 
	C108.777176,435.044495 96.040764,428.966034 83.135437,423.268829 
	C70.375397,417.635834 57.422218,412.441284 44.642906,406.850647 
	C34.593498,402.454254 24.679783,397.747650 14.352459,392.629395 
	C14.002578,344.808807 14.027864,297.537720 14.003116,250.266647 
	C13.980024,206.160095 13.903757,162.053589 13.850897,117.947060 
M269.578308,233.147369 
	C269.295837,233.352753 269.162506,233.629868 268.866821,234.587646 
	C265.197632,238.826370 261.528473,243.065079 257.434021,247.795074 
	C249.525009,238.029541 241.981018,228.806854 234.596481,219.458206 
	C233.833984,218.492905 233.607849,216.702194 233.839066,215.422028 
	C234.942795,209.311249 236.824860,203.293777 237.391388,197.147369 
	C237.894211,191.692108 238.404510,185.549973 236.431076,180.725693 
	C233.885712,174.503220 229.046722,169.157562 224.885223,163.669571 
	C214.089645,149.432892 203.018372,135.404892 192.255768,121.143669 
	C181.089813,106.347984 170.199326,91.344696 159.097214,76.500374 
	C155.665649,71.912140 151.935684,67.547096 148.430328,63.189247 
	C144.085358,65.512939 143.656235,67.428123 146.290237,70.962151 
	C151.213120,77.567139 155.507721,84.646881 159.955261,91.598473 
	C173.761581,113.177956 187.513962,134.791946 201.296036,156.386948 
	C203.061188,159.152771 205.266693,161.721268 206.523956,164.695755 
	C207.265717,166.450623 206.543289,168.824417 206.479324,170.919861 
	C204.467606,170.615005 202.385178,170.529739 200.473465,169.914246 
	C199.492538,169.598404 198.667969,168.436081 198.025223,167.485580 
	C190.065018,155.713852 182.111618,143.937149 174.234985,132.109421 
	C162.338791,114.245811 150.526001,96.326622 138.611160,78.475502 
	C137.402176,76.664169 136.273193,74.154167 133.167053,76.398987 
	C130.517334,78.313934 130.613632,80.367577 132.120956,82.773003 
	C136.599335,89.919724 141.020615,97.104004 145.609818,104.179153 
	C154.274246,117.537048 163.090317,130.796616 171.747589,144.159088 
	C178.044678,153.878616 184.199387,163.690567 190.386429,173.481003 
	C191.267105,174.874603 192.541122,176.354141 192.607559,177.839767 
	C192.683823,179.544250 192.089447,182.018585 190.895752,182.802872 
	C189.962402,183.416122 187.206329,182.426666 186.089066,181.315704 
	C184.386963,179.623260 183.525925,177.120850 182.088730,175.119659 
	C177.111832,168.189697 171.940750,161.397720 167.033081,154.419937 
	C162.210266,147.562790 157.693527,140.490952 152.905914,133.608307 
	C147.045502,125.183334 141.031052,116.865639 135.106125,108.485374 
	C130.912674,102.554123 126.904449,96.481712 122.454948,90.750725 
	C121.611771,89.664703 118.624573,89.070259 117.461823,89.727196 
	C116.239204,90.417961 114.960075,93.522232 115.531914,94.470154 
	C119.422142,100.918816 123.764153,107.097389 128.019562,113.322655 
	C132.603378,120.028366 137.324020,126.641335 141.855972,133.381500 
	C149.400879,144.602753 156.871628,155.874222 164.318222,167.161087 
	C169.312637,174.731155 174.389450,182.259781 178.976593,190.072784 
	C179.735748,191.365799 178.166763,194.025696 177.673660,196.053925 
	C175.912201,195.432190 173.429688,195.345856 172.506073,194.101990 
	C166.426666,185.914688 160.637756,177.509308 154.844406,169.112732 
	C150.141953,162.297241 145.639847,155.343170 140.914795,148.543732 
	C134.985809,140.011826 128.955505,131.549561 122.902649,123.104744 
	C117.443802,115.488663 111.895630,107.936607 106.262520,100.185226 
	C103.432175,101.636482 100.992981,102.840034 102.838104,106.308907 
	C104.457863,109.354088 106.173203,112.353302 107.960541,115.303619 
	C115.463631,127.688789 123.070312,140.011566 130.519318,152.429016 
	C135.792084,161.218719 140.823532,170.152847 146.050049,178.970718 
	C155.366455,194.688766 164.746597,210.369064 174.104721,226.062378 
	C179.140717,234.507614 184.230942,238.733780 194.956833,236.863770 
	C200.301331,237.273300 205.645828,237.682816 211.127060,238.783173 
	C218.279587,251.964645 225.432114,265.146118 232.671631,278.487885 
	C224.800797,288.286560 216.841461,298.210022 208.866043,308.120514 
	C199.313080,319.991272 189.645599,331.771545 180.215881,343.739288 
	C171.953903,354.224976 163.775833,364.786652 155.890182,375.556000 
	C149.344223,384.495728 144.806992,394.443878 140.902054,404.898560 
	C136.430115,416.871338 135.284332,427.988403 141.765884,439.512909 
	C147.379242,449.493652 158.259720,453.702881 169.427750,449.548096 
	C184.762527,443.843201 194.835266,431.796692 203.526886,418.670837 
	C210.258118,408.505463 216.380585,397.924744 222.499191,387.369537 
	C227.970535,377.931000 233.049683,368.265533 238.332428,358.717102 
	C244.546463,347.485443 250.793442,336.271973 257.100525,324.916687 
	C257.832428,325.515717 258.336273,325.742554 258.549713,326.129578 
	C266.525635,340.591125 274.445007,355.083893 282.438629,369.535583 
	C287.155762,378.063751 291.688293,386.714783 296.837433,394.978119 
	C303.463409,405.611511 310.729889,415.843475 317.521606,426.376587 
	C323.114136,435.049835 330.685272,441.423859 339.426910,446.679626 
	C346.569824,450.974182 354.735229,451.584839 361.942261,449.573273 
	C370.422974,447.206238 374.914703,439.584381 377.008606,430.848114 
	C380.580933,415.943359 374.734833,402.684875 368.201111,390.476410 
	C361.174316,377.346619 351.947479,365.263519 342.731567,353.465027 
	C326.835236,333.114166 310.162903,313.370667 293.911865,293.294861 
	C289.884796,288.320007 286.224731,283.048065 282.569946,278.146027 
	C285.027283,273.673401 287.442780,269.384125 289.757660,265.041229 
	C294.538605,256.071930 299.265869,247.074066 304.947968,238.070419 
	C310.206329,237.540070 315.464691,237.009720 321.644012,236.626221 
	C328.881439,238.114319 334.701202,235.748276 338.774811,229.723175 
	C341.820160,225.218964 344.361816,220.374252 347.129913,215.682434 
	C353.394440,205.064423 359.589386,194.404510 365.944244,183.840805 
	C373.321472,171.577682 380.897766,159.434341 388.278748,147.173477 
	C394.665710,136.563843 400.914307,125.870712 407.193512,115.196510 
	C408.952118,112.207024 410.958069,109.283394 412.129608,106.066940 
	C412.606140,104.758690 411.309784,102.667557 410.453491,101.137825 
	C410.299927,100.863487 407.850494,101.212563 407.316803,101.919662 
	C403.743591,106.653854 400.352264,111.528748 396.995728,116.422340 
	C389.961456,126.677734 383.049591,137.017517 375.967133,147.239258 
	C368.734894,157.677200 361.375336,168.027145 354.038330,178.392181 
	C350.212830,183.796494 346.444153,189.251831 342.338348,194.437561 
	C341.558411,195.422699 339.117950,195.891815 337.788391,195.481567 
	C334.751312,194.544403 334.349670,192.159332 335.962311,189.528122 
	C337.692291,186.705414 339.481293,183.916977 341.309967,181.156952 
	C348.037109,171.003616 354.735016,160.830200 361.551666,150.737122 
	C368.086365,141.061539 374.742432,131.467758 381.368164,121.853897 
	C387.224487,113.356529 393.261627,104.976791 398.835632,96.298950 
	C399.735382,94.898193 399.344025,91.703606 398.291962,90.245552 
	C396.808868,88.190109 394.278015,88.088615 392.476837,90.669769 
	C389.558502,94.851807 386.575165,98.988625 383.668945,103.178970 
	C374.919464,115.794510 366.195099,128.427460 357.458710,141.052048 
	C351.819641,149.200760 346.218292,157.376022 340.520599,165.483566 
	C336.707825,170.908951 332.874359,176.330078 328.768127,181.530426 
	C327.920837,182.603470 325.094238,183.571732 324.459351,183.045303 
	C323.208649,182.008179 322.315369,179.896439 322.294403,178.216461 
	C322.276520,176.783112 323.600006,175.275650 324.485718,173.901199 
	C325.980011,171.582260 327.660797,169.383362 329.152344,167.062759 
	C336.430328,155.739166 343.694641,144.406677 350.918213,133.048340 
	C356.333038,124.534111 361.649933,115.957642 367.063110,107.442390 
	C372.368866,99.096130 377.738922,90.790718 383.085663,82.470528 
	C384.806061,79.793365 383.989136,77.306145 381.466492,76.270905 
	C380.314575,75.798164 377.570862,77.169334 376.654724,78.478119 
	C369.150391,89.198456 361.881836,100.084526 354.591003,110.953362 
	C346.959015,122.330818 339.360168,133.730698 331.787872,145.147995 
	C326.475342,153.158005 321.404388,161.337585 315.806763,169.141006 
	C314.727478,170.645599 311.233337,171.895584 309.684875,171.254410 
	C307.085083,170.177963 306.759064,167.696793 308.745209,164.761536 
	C315.126434,155.330917 321.120026,145.637695 327.247894,136.036026 
	C337.199890,120.442383 347.123108,104.830338 357.092957,89.248131 
	C361.103821,82.979446 365.362305,76.861496 369.143677,70.459702 
	C369.968872,69.062698 369.237915,66.746513 369.223663,64.853661 
	C367.488892,65.414917 365.227570,65.473557 364.120178,66.633667 
	C361.059479,69.840103 358.425201,73.464172 355.723419,77.000336 
	C350.834747,83.398727 345.988434,89.830124 341.180969,96.289787 
	C334.289185,105.550087 327.494415,114.882782 320.569183,124.117813 
	C315.918549,130.319611 311.054657,136.361282 306.391632,142.554001 
	C298.854584,152.563568 291.286896,162.554153 283.975952,172.727921 
	C281.113342,176.711533 277.304626,180.984650 276.793762,185.453659 
	C276.089417,191.615097 277.754944,198.158722 279.047485,204.405762 
	C280.330383,210.606369 283.079773,216.644012 278.281830,222.973633 
	C277.448212,223.970001 276.614563,224.966370 275.429596,226.132584 
	C275.209167,226.289719 275.058746,226.497513 274.503113,227.069382 
	C274.287750,227.376083 274.072388,227.682800 273.514130,228.202148 
	C273.297485,228.371445 273.132538,228.581360 272.425568,229.158020 
	C271.581360,230.432709 270.737152,231.707397 269.978302,232.999222 
	C269.978302,232.999222 269.995422,232.913818 269.578308,233.147369 
M479.817413,241.717285 
	C480.214386,237.229385 480.575714,232.737961 481.020294,228.254776 
	C481.342957,225.000900 479.936279,223.947144 476.718140,223.955765 
	C444.797791,224.041077 412.877045,223.986038 380.956848,224.093765 
	C379.697601,224.098007 378.442535,225.337097 377.076569,226.928665 
	C377.064789,230.588791 377.148895,234.252502 377.011536,237.907913 
	C376.897644,240.939453 378.242798,241.984650 381.180237,241.975464 
	C413.789246,241.873581 446.398438,241.842148 479.817413,241.717285 
M36.939568,241.892975 
	C68.898888,241.914536 100.858398,241.890656 132.817291,242.018204 
	C136.587540,242.033249 138.385117,241.032333 138.047150,236.969543 
	C137.744446,233.330780 137.890182,229.654678 137.748795,225.181519 
	C135.751785,224.788147 133.755661,224.057510 131.757614,224.052216 
	C103.483101,223.977280 75.208328,224.002319 46.933613,223.999817 
	C33.630939,223.998627 33.573784,223.997482 34.067764,237.542511 
	C34.120186,238.979950 35.333496,240.375076 36.939568,241.892975 
M475.895752,289.932526 
	C477.458557,289.834869 479.021393,289.737213 480.964264,289.615784 
	C480.964264,284.225067 481.047943,279.322662 480.876862,274.429169 
	C480.850281,273.668732 479.659821,272.948975 478.075378,272.096191 
	C448.782318,272.073853 419.488129,271.892578 390.196594,272.093323 
	C374.547424,272.200592 377.367828,268.768524 376.996765,286.027740 
	C376.929932,289.137238 378.290649,290.038910 381.179352,290.029358 
	C412.467224,289.925537 443.755310,289.892303 475.895752,289.932526 
M36.935150,289.954498 
	C66.244728,289.975281 95.554306,289.998779 124.863884,290.015625 
	C138.825089,290.023651 138.746017,290.021912 138.044083,276.092682 
	C137.894333,273.121002 136.921173,271.989502 133.917313,272.000275 
	C101.279556,272.117371 68.641502,272.150299 35.193268,272.284607 
	C35.001801,277.990387 34.800583,283.695953 34.677364,289.403168 
	C34.674408,289.540131 35.542377,289.695892 36.935150,289.954498 
M153.946533,263.106201 
	C153.913025,258.729919 153.879501,254.353622 153.688248,249.255264 
	C151.627930,248.533859 149.570343,247.192154 147.506866,247.183014 
	C109.369667,247.013992 71.231735,246.958206 33.094025,246.983612 
	C18.331381,246.993454 18.290052,247.239212 19.473646,262.361969 
	C19.734751,265.698090 20.933865,266.965607 24.349937,266.958893 
	C65.819016,266.877594 107.288437,266.938019 148.757080,266.781769 
	C150.446899,266.775391 152.130035,264.992401 153.946533,263.106201 
M361.268250,264.771790 
	C363.129425,265.492065 364.988739,266.835236 366.852051,266.840820 
	C405.168030,266.955750 443.485016,267.030396 481.800598,266.856934 
	C497.568634,266.785553 495.629150,270.044037 495.815430,252.379105 
	C495.858734,248.275970 494.212036,246.941925 490.108795,247.004166 
	C475.951630,247.218887 461.789215,247.104416 447.628845,247.085602 
	C421.141113,247.050415 394.653381,246.970642 368.165680,246.983719 
	C365.511200,246.985031 362.233185,246.054596 361.042969,250.907898 
	C361.093201,255.278091 361.143463,259.648285 361.268250,264.771790 
z"/>
<path fill="#664C51" opacity="1.000000" stroke="none" 
	d="
M13.661685,117.906494 
	C13.903757,162.053589 13.980024,206.160095 14.003116,250.266647 
	C14.027864,297.537720 14.002578,344.808807 14.000717,392.550659 
	C13.336564,390.633667 12.093091,388.246887 12.089212,385.858093 
	C11.979939,318.579468 11.994596,251.300674 11.991944,184.021912 
	C11.991144,163.705063 11.963543,143.388031 12.066926,123.071678 
	C12.075768,121.334091 12.982727,119.601067 13.661685,117.906494 
z"/>
<path fill="#5D5053" opacity="1.000000" stroke="none" 
	d="
M502.090027,397.707520 
	C501.631989,395.668152 501.042358,393.233032 501.045227,390.798615 
	C501.098236,345.715210 501.303131,300.631927 501.306793,255.548599 
	C501.310150,214.125198 501.101929,172.701797 501.030975,131.278336 
	C501.026733,128.802597 501.413177,126.326210 501.657837,123.442032 
	C502.131989,125.629669 502.943726,128.225098 502.945709,130.821152 
	C503.011780,217.348541 503.006470,303.876007 502.968536,390.403473 
	C502.967499,392.706451 502.489716,395.009216 502.090027,397.707520 
z"/>
<path fill="#5D5053" opacity="1.000000" stroke="none" 
	d="
M501.010590,399.842743 
	C501.094818,399.657227 501.308899,399.381012 501.743286,398.954620 
	C501.689178,399.120300 501.414795,399.436157 501.010590,399.842743 
z"/>
<path fill="#613942" opacity="1.000000" stroke="none" 
	d="
M274.978302,226.755981 
	C275.058746,226.497513 275.209167,226.289719 275.904205,225.899597 
	C277.220398,224.690170 278.061981,223.713730 278.903564,222.737289 
	C283.079773,216.644012 280.330383,210.606369 279.047485,204.405762 
	C277.754944,198.158722 276.089417,191.615097 276.793762,185.453659 
	C277.304626,180.984650 281.113342,176.711533 283.975952,172.727921 
	C291.286896,162.554153 298.854584,152.563568 306.391632,142.554001 
	C311.054657,136.361282 315.918549,130.319611 320.569183,124.117813 
	C327.494415,114.882782 334.289185,105.550087 341.180969,96.289787 
	C345.988434,89.830124 350.834747,83.398727 355.723419,77.000336 
	C358.425201,73.464172 361.059479,69.840103 364.120178,66.633667 
	C365.227570,65.473557 367.488892,65.414917 369.223663,64.853661 
	C369.237915,66.746513 369.968872,69.062698 369.143677,70.459702 
	C365.362305,76.861496 361.103821,82.979446 357.092957,89.248131 
	C347.123108,104.830338 337.199890,120.442383 327.247894,136.036026 
	C321.120026,145.637695 315.126434,155.330917 308.745209,164.761536 
	C306.759064,167.696793 307.085083,170.177963 309.684875,171.254410 
	C311.233337,171.895584 314.727478,170.645599 315.806763,169.141006 
	C321.404388,161.337585 326.475342,153.158005 331.787872,145.147995 
	C339.360168,133.730698 346.959015,122.330818 354.591003,110.953362 
	C361.881836,100.084526 369.150391,89.198456 376.654724,78.478119 
	C377.570862,77.169334 380.314575,75.798164 381.466492,76.270905 
	C383.989136,77.306145 384.806061,79.793365 383.085663,82.470528 
	C377.738922,90.790718 372.368866,99.096130 367.063110,107.442390 
	C361.649933,115.957642 356.333038,124.534111 350.918213,133.048340 
	C343.694641,144.406677 336.430328,155.739166 329.152344,167.062759 
	C327.660797,169.383362 325.980011,171.582260 324.485718,173.901199 
	C323.600006,175.275650 322.276520,176.783112 322.294403,178.216461 
	C322.315369,179.896439 323.208649,182.008179 324.459351,183.045303 
	C325.094238,183.571732 327.920837,182.603470 328.768127,181.530426 
	C332.874359,176.330078 336.707825,170.908951 340.520599,165.483566 
	C346.218292,157.376022 351.819641,149.200760 357.458710,141.052048 
	C366.195099,128.427460 374.919464,115.794510 383.668945,103.178970 
	C386.575165,98.988625 389.558502,94.851807 392.476837,90.669769 
	C394.278015,88.088615 396.808868,88.190109 398.291962,90.245552 
	C399.344025,91.703606 399.735382,94.898193 398.835632,96.298950 
	C393.261627,104.976791 387.224487,113.356529 381.368164,121.853897 
	C374.742432,131.467758 368.086365,141.061539 361.551666,150.737122 
	C354.735016,160.830200 348.037109,171.003616 341.309967,181.156952 
	C339.481293,183.916977 337.692291,186.705414 335.962311,189.528122 
	C334.349670,192.159332 334.751312,194.544403 337.788391,195.481567 
	C339.117950,195.891815 341.558411,195.422699 342.338348,194.437561 
	C346.444153,189.251831 350.212830,183.796494 354.038330,178.392181 
	C361.375336,168.027145 368.734894,157.677200 375.967133,147.239258 
	C383.049591,137.017517 389.961456,126.677734 396.995728,116.422340 
	C400.352264,111.528748 403.743591,106.653854 407.316803,101.919662 
	C407.850494,101.212563 410.299927,100.863487 410.453491,101.137825 
	C411.309784,102.667557 412.606140,104.758690 412.129608,106.066940 
	C410.958069,109.283394 408.952118,112.207024 407.193512,115.196510 
	C400.914307,125.870712 394.665710,136.563843 388.278748,147.173477 
	C380.897766,159.434341 373.321472,171.577682 365.944244,183.840805 
	C359.589386,194.404510 353.394440,205.064423 347.129913,215.682434 
	C344.361816,220.374252 341.820160,225.218964 338.774811,229.723175 
	C334.701202,235.748276 328.881439,238.114319 320.805176,236.478241 
	C314.649292,236.916153 309.332245,237.502045 304.015198,238.087952 
	C299.265869,247.074066 294.538605,256.071930 289.757660,265.041229 
	C287.442780,269.384125 285.027283,273.673401 282.569946,278.146027 
	C286.224731,283.048065 289.884796,288.320007 293.911865,293.294861 
	C310.162903,313.370667 326.835236,333.114166 342.731567,353.465027 
	C351.947479,365.263519 361.174316,377.346619 368.201111,390.476410 
	C374.734833,402.684875 380.580933,415.943359 377.008606,430.848114 
	C374.914703,439.584381 370.422974,447.206238 361.942261,449.573273 
	C354.735229,451.584839 346.569824,450.974182 339.426910,446.679626 
	C330.685272,441.423859 323.114136,435.049835 317.521606,426.376587 
	C310.729889,415.843475 303.463409,405.611511 296.837433,394.978119 
	C291.688293,386.714783 287.155762,378.063751 282.438629,369.535583 
	C274.445007,355.083893 266.525635,340.591125 258.549713,326.129578 
	C258.336273,325.742554 257.832428,325.515717 257.100525,324.916687 
	C250.793442,336.271973 244.546463,347.485443 238.332428,358.717102 
	C233.049683,368.265533 227.970535,377.931000 222.499191,387.369537 
	C216.380585,397.924744 210.258118,408.505463 203.526886,418.670837 
	C194.835266,431.796692 184.762527,443.843201 169.427750,449.548096 
	C158.259720,453.702881 147.379242,449.493652 141.765884,439.512909 
	C135.284332,427.988403 136.430115,416.871338 140.902054,404.898560 
	C144.806992,394.443878 149.344223,384.495728 155.890182,375.556000 
	C163.775833,364.786652 171.953903,354.224976 180.215881,343.739288 
	C189.645599,331.771545 199.313080,319.991272 208.866043,308.120514 
	C216.841461,298.210022 224.800797,288.286560 232.671631,278.487885 
	C225.432114,265.146118 218.279587,251.964645 210.785522,238.179474 
	C205.054688,237.191269 199.665405,236.806793 194.276123,236.422302 
	C184.230942,238.733780 179.140717,234.507614 174.104721,226.062378 
	C164.746597,210.369064 155.366455,194.688766 146.050049,178.970718 
	C140.823532,170.152847 135.792084,161.218719 130.519318,152.429016 
	C123.070312,140.011566 115.463631,127.688789 107.960541,115.303619 
	C106.173203,112.353302 104.457863,109.354088 102.838104,106.308907 
	C100.992981,102.840034 103.432175,101.636482 106.262520,100.185226 
	C111.895630,107.936607 117.443802,115.488663 122.902649,123.104744 
	C128.955505,131.549561 134.985809,140.011826 140.914795,148.543732 
	C145.639847,155.343170 150.141953,162.297241 154.844406,169.112732 
	C160.637756,177.509308 166.426666,185.914688 172.506073,194.101990 
	C173.429688,195.345856 175.912201,195.432190 177.673660,196.053925 
	C178.166763,194.025696 179.735748,191.365799 178.976593,190.072784 
	C174.389450,182.259781 169.312637,174.731155 164.318222,167.161087 
	C156.871628,155.874222 149.400879,144.602753 141.855972,133.381500 
	C137.324020,126.641335 132.603378,120.028366 128.019562,113.322655 
	C123.764153,107.097389 119.422142,100.918816 115.531914,94.470154 
	C114.960075,93.522232 116.239204,90.417961 117.461823,89.727196 
	C118.624573,89.070259 121.611771,89.664703 122.454948,90.750725 
	C126.904449,96.481712 130.912674,102.554123 135.106125,108.485374 
	C141.031052,116.865639 147.045502,125.183334 152.905914,133.608307 
	C157.693527,140.490952 162.210266,147.562790 167.033081,154.419937 
	C171.940750,161.397720 177.111832,168.189697 182.088730,175.119659 
	C183.525925,177.120850 184.386963,179.623260 186.089066,181.315704 
	C187.206329,182.426666 189.962402,183.416122 190.895752,182.802872 
	C192.089447,182.018585 192.683823,179.544250 192.607559,177.839767 
	C192.541122,176.354141 191.267105,174.874603 190.386429,173.481003 
	C184.199387,163.690567 178.044678,153.878616 171.747589,144.159088 
	C163.090317,130.796616 154.274246,117.537048 145.609818,104.179153 
	C141.020615,97.104004 136.599335,89.919724 132.120956,82.773003 
	C130.613632,80.367577 130.517334,78.313934 133.167053,76.398987 
	C136.273193,74.154167 137.402176,76.664169 138.611160,78.475502 
	C150.526001,96.326622 162.338791,114.245811 174.234985,132.109421 
	C182.111618,143.937149 190.065018,155.713852 198.025223,167.485580 
	C198.667969,168.436081 199.492538,169.598404 200.473465,169.914246 
	C202.385178,170.529739 204.467606,170.615005 206.479324,170.919861 
	C206.543289,168.824417 207.265717,166.450623 206.523956,164.695755 
	C205.266693,161.721268 203.061188,159.152771 201.296036,156.386948 
	C187.513962,134.791946 173.761581,113.177956 159.955261,91.598473 
	C155.507721,84.646881 151.213120,77.567139 146.290237,70.962151 
	C143.656235,67.428123 144.085358,65.512939 148.430328,63.189247 
	C151.935684,67.547096 155.665649,71.912140 159.097214,76.500374 
	C170.199326,91.344696 181.089813,106.347984 192.255768,121.143669 
	C203.018372,135.404892 214.089645,149.432892 224.885223,163.669571 
	C229.046722,169.157562 233.885712,174.503220 236.431076,180.725693 
	C238.404510,185.549973 237.894211,191.692108 237.391388,197.147369 
	C236.824860,203.293777 234.942795,209.311249 233.839066,215.422028 
	C233.607849,216.702194 233.833984,218.492905 234.596481,219.458206 
	C241.981018,228.806854 249.525009,238.029541 257.434021,247.795074 
	C261.528473,243.065079 265.197632,238.826370 269.167969,234.112793 
	C269.657990,233.406311 269.833405,233.164932 269.995422,232.913818 
	C269.995422,232.913818 269.978302,232.999222 270.230103,232.826111 
	C271.327667,231.379303 272.173492,230.105606 273.019287,228.831894 
	C273.132538,228.581360 273.297485,228.371445 273.884613,227.902191 
	C274.496155,227.320145 274.737244,227.038055 274.978302,226.755981 
z"/>
<path fill="#5D3A42" opacity="1.000000" stroke="none" 
	d="
M361.156494,249.977982 
	C362.233185,246.054596 365.511200,246.985031 368.165680,246.983719 
	C394.653381,246.970642 421.141113,247.050415 447.628845,247.085602 
	C461.789215,247.104416 475.951630,247.218887 490.108795,247.004166 
	C494.212036,246.941925 495.858734,248.275970 495.815430,252.379105 
	C495.629150,270.044037 497.568634,266.785553 481.800598,266.856934 
	C443.485016,267.030396 405.168030,266.955750 366.852051,266.840820 
	C364.988739,266.835236 363.129425,265.492065 361.463867,264.109009 
	C363.591736,258.878418 363.985107,254.368042 361.156494,249.977982 
z"/>
<path fill="#5D3A42" opacity="1.000000" stroke="none" 
	d="
M153.816284,264.037170 
	C152.130035,264.992401 150.446899,266.775391 148.757080,266.781769 
	C107.288437,266.938019 65.819016,266.877594 24.349937,266.958893 
	C20.933865,266.965607 19.734751,265.698090 19.473646,262.361969 
	C18.290052,247.239212 18.331381,246.993454 33.094025,246.983612 
	C71.231735,246.958206 109.369667,247.013992 147.506866,247.183014 
	C149.570343,247.192154 151.627930,248.533859 153.530029,249.899399 
	C151.387665,255.111649 151.103851,259.623749 153.816284,264.037170 
z"/>
<path fill="#623943" opacity="1.000000" stroke="none" 
	d="
M36.003525,272.206177 
	C68.641502,272.150299 101.279556,272.117371 133.917313,272.000275 
	C136.921173,271.989502 137.894333,273.121002 138.044083,276.092682 
	C138.746017,290.021912 138.825089,290.023651 124.863884,290.015625 
	C95.554306,289.998779 66.244728,289.975281 36.470100,289.441162 
	C36.004543,283.353943 36.004032,277.780060 36.003525,272.206177 
z"/>
<path fill="#623943" opacity="1.000000" stroke="none" 
	d="
M475.043335,289.839844 
	C443.755310,289.892303 412.467224,289.925537 381.179352,290.029358 
	C378.290649,290.038910 376.929932,289.137238 376.996765,286.027740 
	C377.367828,268.768524 374.547424,272.200592 390.196594,272.093323 
	C419.488129,271.892578 448.782318,272.073853 478.545685,272.605957 
	C478.447235,278.869873 481.046204,285.376495 475.043335,289.839844 
z"/>
<path fill="#623842" opacity="1.000000" stroke="none" 
	d="
M137.838074,225.995056 
	C137.890182,229.654678 137.744446,233.330780 138.047150,236.969543 
	C138.385117,241.032333 136.587540,242.033249 132.817291,242.018204 
	C100.858398,241.890656 68.898888,241.914536 36.469002,241.388641 
	C35.998577,239.389664 35.997261,237.895020 35.999100,236.400391 
	C36.011795,226.096222 36.084942,226.008194 46.166878,226.005081 
	C76.723946,225.995636 107.281006,225.997559 137.838074,225.995056 
z"/>
<path fill="#623842" opacity="1.000000" stroke="none" 
	d="
M479.007599,241.791687 
	C446.398438,241.842148 413.789246,241.873581 381.180237,241.975464 
	C378.242798,241.984650 376.897644,240.939453 377.011536,237.907913 
	C377.148895,234.252502 377.064789,230.588791 377.587646,226.463333 
	C400.181732,225.999680 422.264740,225.998505 444.347717,226.004364 
	C453.811768,226.006882 463.276489,226.093536 472.739563,226.003952 
	C477.159393,225.962128 479.152618,227.938370 479.013489,232.328461 
	C478.913635,235.479767 479.002777,238.637070 479.007599,241.791687 
z"/>
<path fill="#62474D" opacity="1.000000" stroke="none" 
	d="
M479.412506,241.754486 
	C479.002777,238.637070 478.913635,235.479767 479.013489,232.328461 
	C479.152618,227.938370 477.159393,225.962128 472.739563,226.003952 
	C463.276489,226.093536 453.811768,226.006882 444.347717,226.004364 
	C422.264740,225.998505 400.181732,225.999680 377.642151,225.999405 
	C378.442535,225.337097 379.697601,224.098007 380.956848,224.093765 
	C412.877045,223.986038 444.797791,224.041077 476.718140,223.955765 
	C479.936279,223.947144 481.342957,225.000900 481.020294,228.254776 
	C480.575714,232.737961 480.214386,237.229385 479.412506,241.754486 
z"/>
<path fill="#62474D" opacity="1.000000" stroke="none" 
	d="
M137.793427,225.588287 
	C107.281006,225.997559 76.723946,225.995636 46.166878,226.005081 
	C36.084942,226.008194 36.011795,226.096222 35.999100,236.400391 
	C35.997261,237.895020 35.998577,239.389664 36.003342,241.337067 
	C35.333496,240.375076 34.120186,238.979950 34.067764,237.542511 
	C33.573784,223.997482 33.630939,223.998627 46.933613,223.999817 
	C75.208328,224.002319 103.483101,223.977280 131.757614,224.052216 
	C133.755661,224.057510 135.751785,224.788147 137.793427,225.588287 
z"/>
<path fill="#62474D" opacity="1.000000" stroke="none" 
	d="
M475.469543,289.886169 
	C481.046204,285.376495 478.447235,278.869873 479.011780,272.663086 
	C479.659821,272.948975 480.850281,273.668732 480.876862,274.429169 
	C481.047943,279.322662 480.964264,284.225067 480.964264,289.615784 
	C479.021393,289.737213 477.458557,289.834869 475.469543,289.886169 
z"/>
<path fill="#62474D" opacity="1.000000" stroke="none" 
	d="
M35.598396,272.245392 
	C36.004032,277.780060 36.004543,283.353943 36.004593,289.385345 
	C35.542377,289.695892 34.674408,289.540131 34.677364,289.403168 
	C34.800583,283.695953 35.001801,277.990387 35.598396,272.245392 
z"/>
<path fill="#4F4447" opacity="1.000000" stroke="none" 
	d="
M194.616486,236.643036 
	C199.665405,236.806793 205.054688,237.191269 210.717148,237.834045 
	C205.645828,237.682816 200.301331,237.273300 194.616486,236.643036 
z"/>
<path fill="#4C4143" opacity="1.000000" stroke="none" 
	d="
M304.481567,238.079193 
	C309.332245,237.502045 314.649292,236.916153 320.344696,236.404816 
	C315.464691,237.009720 310.206329,237.540070 304.481567,238.079193 
z"/>
<path fill="#614E53" opacity="1.000000" stroke="none" 
	d="
M361.099731,250.442932 
	C363.985107,254.368042 363.591736,258.878418 361.426575,263.732361 
	C361.143463,259.648285 361.093201,255.278091 361.099731,250.442932 
z"/>
<path fill="#5F4C50" opacity="1.000000" stroke="none" 
	d="
M153.881409,263.571686 
	C151.103851,259.623749 151.387665,255.111649 153.608902,250.260437 
	C153.879501,254.353622 153.913025,258.729919 153.881409,263.571686 
z"/>
<path fill="#4F4447" opacity="1.000000" stroke="none" 
	d="
M272.722412,228.994965 
	C272.173492,230.105606 271.327667,231.379303 270.187378,232.817535 
	C270.737152,231.707397 271.581360,230.432709 272.722412,228.994965 
z"/>
<path fill="#4F4447" opacity="1.000000" stroke="none" 
	d="
M278.592712,222.855469 
	C278.061981,223.713730 277.220398,224.690170 276.079865,225.814667 
	C276.614563,224.966370 277.448212,223.970001 278.592712,222.855469 
z"/>
<path fill="#4F4447" opacity="1.000000" stroke="none" 
	d="
M269.786865,233.030594 
	C269.833405,233.164932 269.657990,233.406311 269.323730,233.808319 
	C269.162506,233.629868 269.295837,233.352753 269.786865,233.030594 
z"/>
<path fill="#4F4447" opacity="1.000000" stroke="none" 
	d="
M274.740723,226.912689 
	C274.737244,227.038055 274.496155,227.320145 274.056030,227.795868 
	C274.072388,227.682800 274.287750,227.376083 274.740723,226.912689 
z"/>
</svg>